# xmcd CD database file
#
# Track frame offsets:
#	187
#	19057
#	34562
#	53370
#
# Disc length: 915 seconds
#
# Revision: 1
# Processed by: cddbd v1.5.1PL0 Copyright (c) Steve Scherf et al.
# Submitted via: CDex 1.51
#
DISCID=20039104
DTITLE=AKINA NAKAMORI - Tokyo Rose
DYEAR=1994
DGENRE=J-POP
TTITLE0=Tokyo Rose
TTITLE1=Yasashii Kankei
TTITLE2=Tokyo Rose(KARAOKE)
TTITLE3=Yasashii Kankei(KARAOKE)
EXTD=YEAR: 1994
EXTT0=
EXTT1=
EXTT2=
EXTT3=
PLAYORDER=
